REM DIRINDEX 1\2\6,1\2\7,1\2\8,1\3\9,1\3\10,1\3\11,1\4\12,1\4\13,1\4\14,1\5\15,1\5\16,1\5\17,1\5\18
REM DIRNAME cjc019,folder01,folder02,folder03,folder04,folder05,folder06,folder07,folder08,folder09,folder10,folder11,folder12,folder13,folder14,folder15,folder16,folder17
TITLE ""
FILE "2Q_j_1292-1305.mp3" MP3
  TRACK 01 AUDIO
    TITLE "6:cjc019_0338"
    INDEX 01 00:00:00
  TRACK 02 AUDIO
    TITLE "0:"
    INDEX 01 00:01:42
  TRACK 03 AUDIO
    TITLE "7:cjc019_0339"
    INDEX 01 00:02:20
  TRACK 04 AUDIO
    TITLE "0:"
    INDEX 01 00:05:05
  TRACK 05 AUDIO
    TITLE "8:cjc019_0340"
    INDEX 01 00:05:65
  TRACK 06 AUDIO
    TITLE "0:"
    INDEX 01 00:09:45
  TRACK 07 AUDIO
    TITLE "6:cjc019_0341"
    INDEX 01 00:10:29
  TRACK 08 AUDIO
    TITLE "0:"
    INDEX 01 00:12:01
  TRACK 09 AUDIO
    TITLE "7:cjc019_0342"
    INDEX 01 00:12:58
  TRACK 10 AUDIO
    TITLE "0:"
    INDEX 01 00:15:54
  TRACK 11 AUDIO
    TITLE "8:cjc019_0343"
    INDEX 01 00:16:34
  TRACK 12 AUDIO
    TITLE "0:"
    INDEX 01 00:20:53
  TRACK 13 AUDIO
    TITLE "6:cjc019_0344"
    INDEX 01 00:21:31
  TRACK 14 AUDIO
    TITLE "0:"
    INDEX 01 00:22:68
  TRACK 15 AUDIO
    TITLE "7:cjc019_0345"
    INDEX 01 00:23:53
  TRACK 16 AUDIO
    TITLE "0:"
    INDEX 01 00:27:39
  TRACK 17 AUDIO
    TITLE "8:cjc019_0346"
    INDEX 01 00:28:13
  TRACK 18 AUDIO
    TITLE "0:"
    INDEX 01 00:32:23
  TRACK 19 AUDIO
    TITLE "6:cjc019_0347"
    INDEX 01 00:33:03
  TRACK 20 AUDIO
    TITLE "0:"
    INDEX 01 00:34:34
  TRACK 21 AUDIO
    TITLE "7:cjc019_0348"
    INDEX 01 00:35:10
  TRACK 22 AUDIO
    TITLE "0:"
    INDEX 01 00:37:16
  TRACK 23 AUDIO
    TITLE "8:cjc019_0349"
    INDEX 01 00:37:67
  TRACK 24 AUDIO
    TITLE "0:"
    INDEX 01 00:40:60
  TRACK 25 AUDIO
    TITLE "6:cjc019_0350"
    INDEX 01 00:41:34
  TRACK 26 AUDIO
    TITLE "0:"
    INDEX 01 00:43:03
  TRACK 27 AUDIO
    TITLE "7:cjc019_0351"
    INDEX 01 00:43:56
  TRACK 28 AUDIO
    TITLE "0:"
    INDEX 01 00:47:66
  TRACK 29 AUDIO
    TITLE "8:cjc019_0352"
    INDEX 01 00:48:46
  TRACK 30 AUDIO
    TITLE "0:"
    INDEX 01 00:50:44
  TRACK 31 AUDIO
    TITLE "6:cjc019_0353"
    INDEX 01 00:51:26
  TRACK 32 AUDIO
    TITLE "0:"
    INDEX 01 00:53:04
  TRACK 33 AUDIO
    TITLE "7:cjc019_0354"
    INDEX 01 00:53:60
  TRACK 34 AUDIO
    TITLE "0:"
    INDEX 01 00:56:20
  TRACK 35 AUDIO
    TITLE "8:cjc019_0355"
    INDEX 01 00:56:65
  TRACK 36 AUDIO
    TITLE "0:"
    INDEX 01 01:00:55
  TRACK 37 AUDIO
    TITLE "6:cjc019_0356"
    INDEX 01 01:01:36
  TRACK 38 AUDIO
    TITLE "0:"
    INDEX 01 01:02:69
  TRACK 39 AUDIO
    TITLE "7:cjc019_0357"
    INDEX 01 01:03:49
  TRACK 40 AUDIO
    TITLE "0:"
    INDEX 01 01:06:00
  TRACK 41 AUDIO
    TITLE "8:cjc019_0358"
    INDEX 01 01:06:47
  TRACK 42 AUDIO
    TITLE "0:"
    INDEX 01 01:09:18
  TRACK 43 AUDIO
    TITLE "6:cjc019_0359"
    INDEX 01 01:09:73
  TRACK 44 AUDIO
    TITLE "0:"
    INDEX 01 01:11:47
  TRACK 45 AUDIO
    TITLE "7:cjc019_0360"
    INDEX 01 01:12:32
  TRACK 46 AUDIO
    TITLE "0:"
    INDEX 01 01:14:66
  TRACK 47 AUDIO
    TITLE "8:cjc019_0361"
    INDEX 01 01:15:46
  TRACK 48 AUDIO
    TITLE "0:"
    INDEX 01 01:17:49
  TRACK 49 AUDIO
    TITLE "6:cjc019_0362"
    INDEX 01 01:18:31
  TRACK 50 AUDIO
    TITLE "0:"
    INDEX 01 01:20:16
  TRACK 51 AUDIO
    TITLE "7:cjc019_0363"
    INDEX 01 01:20:69
  TRACK 52 AUDIO
    TITLE "0:"
    INDEX 01 01:24:02
  TRACK 53 AUDIO
    TITLE "8:cjc019_0364"
    INDEX 01 01:24:49
  TRACK 54 AUDIO
    TITLE "0:"
    INDEX 01 01:29:56
  TRACK 55 AUDIO
    TITLE "6:cjc019_0365"
    INDEX 01 01:30:36
  TRACK 56 AUDIO
    TITLE "0:"
    INDEX 01 01:31:57
  TRACK 57 AUDIO
    TITLE "7:cjc019_0366"
    INDEX 01 01:32:41
  TRACK 58 AUDIO
    TITLE "0:"
    INDEX 01 01:36:15
  TRACK 59 AUDIO
    TITLE "8:cjc019_0367"
    INDEX 01 01:36:72
  TRACK 60 AUDIO
    TITLE "0:"
    INDEX 01 01:38:57
  TRACK 61 AUDIO
    TITLE "6:cjc019_0368"
    INDEX 01 01:39:41
  TRACK 62 AUDIO
    TITLE "0:"
    INDEX 01 01:40:62
  TRACK 63 AUDIO
    TITLE "7:cjc019_0369"
    INDEX 01 01:41:50
  TRACK 64 AUDIO
    TITLE "0:"
    INDEX 01 01:46:31
  TRACK 65 AUDIO
    TITLE "8:cjc019_0370"
    INDEX 01 01:47:11
  TRACK 66 AUDIO
    TITLE "0:"
    INDEX 01 01:50:72
  TRACK 67 AUDIO
    TITLE "6:cjc019_0371"
    INDEX 01 01:51:52
  TRACK 68 AUDIO
    TITLE "0:"
    INDEX 01 01:53:02
  TRACK 69 AUDIO
    TITLE "7:cjc019_0372"
    INDEX 01 01:53:57
  TRACK 70 AUDIO
    TITLE "0:"
    INDEX 01 01:56:06
  TRACK 71 AUDIO
    TITLE "8:cjc019_0373"
    INDEX 01 01:56:67
  TRACK 72 AUDIO
    TITLE "0:"
    INDEX 01 01:59:61
  TRACK 73 AUDIO
    TITLE "6:cjc019_0374"
    INDEX 01 02:00:43
  TRACK 74 AUDIO
    TITLE "0:"
    INDEX 01 02:01:68
  TRACK 75 AUDIO
    TITLE "7:cjc019_0375"
    INDEX 01 02:02:52
  TRACK 76 AUDIO
    TITLE "0:"
    INDEX 01 02:06:71
  TRACK 77 AUDIO
    TITLE "8:cjc019_0376"
    INDEX 01 02:07:55
  TRACK 78 AUDIO
    TITLE "0:"
    INDEX 01 02:11:37
  TRACK 79 AUDIO
    TITLE "6:cjc019_0377"
    INDEX 01 02:12:23
  TRACK 80 AUDIO
    TITLE "0:"
    INDEX 01 02:13:48
  TRACK 81 AUDIO
    TITLE "7:cjc019_0378"
    INDEX 01 02:14:30
  TRACK 82 AUDIO
    TITLE "0:"
    INDEX 01 02:18:21
  TRACK 83 AUDIO
    TITLE "8:cjc019_0379"
    INDEX 01 02:18:74
  TRACK 84 AUDIO
    TITLE "0:"
    INDEX 01 02:23:01
